
<global>
ampeg_release=0.5
loop_mode=loop_continuous
</global>

<group>
group_label=PP
xf_cccurve=gain
xfin_hicc1=42
xfout_hicc1=85
xfout_locc1=42

<region>
hikey=g#5
hivel=127
lokey=g5
loop_end=193054
loop_mode=loop_continuous
loop_start=61997
loop_xfade=15880
lovel=1
pitch_keycenter=g#5
sample=4Trumpets_trill_whole_PP_G#5.opus
</region>

<region>
hikey=g#4
hivel=127
lokey=g4
loop_end=187249
loop_mode=loop_continuous
loop_start=60132
loop_xfade=15403
lovel=1
pitch_keycenter=g#4
sample=4Trumpets_trill_whole_PP_G#4.opus
</region>

<region>
hikey=g#3
hivel=127
lokey=g3
loop_end=184829
loop_mode=loop_continuous
loop_start=59355
loop_xfade=15204
lovel=1
pitch_keycenter=g#3
sample=4Trumpets_trill_whole_PP_G#3.opus
</region>

<region>
hikey=f#5
hivel=127
lokey=f5
loop_end=184778
loop_mode=loop_continuous
loop_start=59339
loop_xfade=15199
lovel=1
pitch_keycenter=f#5
sample=4Trumpets_trill_whole_PP_F#5.opus
</region>

<region>
hikey=f#4
hivel=127
lokey=f4
loop_end=193801
loop_mode=loop_continuous
loop_start=62237
loop_xfade=15941
lovel=1
pitch_keycenter=f#4
sample=4Trumpets_trill_whole_PP_F#4.opus
</region>

<region>
hivel=127
key=f#3
loop_end=188191
loop_mode=loop_continuous
loop_start=60435
loop_xfade=15480
lovel=1
sample=4Trumpets_trill_whole_PP_F#3.opus
</region>

<region>
hikey=e5
hivel=127
lokey=d#5
loop_end=193246
loop_mode=loop_continuous
loop_start=62058
loop_xfade=15896
lovel=1
pitch_keycenter=e5
sample=4Trumpets_trill_whole_PP_E5.opus
</region>

<region>
hikey=e4
hivel=127
lokey=d#4
loop_end=186873
loop_mode=loop_continuous
loop_start=60012
loop_xfade=15372
lovel=1
pitch_keycenter=e4
sample=4Trumpets_trill_whole_PP_E4.opus
</region>

<region>
hikey=d5
hivel=127
lokey=c#5
loop_end=190026
loop_mode=loop_continuous
loop_start=61024
loop_xfade=15631
lovel=1
pitch_keycenter=d5
sample=4Trumpets_trill_whole_PP_D5.opus
</region>

<region>
hikey=d4
hivel=127
lokey=c#4
loop_end=185465
loop_mode=loop_continuous
loop_start=59559
loop_xfade=15256
lovel=1
pitch_keycenter=d4
sample=4Trumpets_trill_whole_PP_D4.opus
</region>

<region>
hikey=c6
hivel=127
lokey=b5
loop_end=192758
loop_mode=loop_continuous
loop_start=61901
loop_xfade=15856
lovel=1
pitch_keycenter=C6
sample=4Trumpets_trill_whole_PP_C6.opus
</region>

<region>
hikey=c5
hivel=127
lokey=b4
loop_end=186012
loop_mode=loop_continuous
loop_start=59735
loop_xfade=15301
lovel=1
pitch_keycenter=c5
sample=4Trumpets_trill_whole_PP_C5.opus
</region>

<region>
hikey=c4
hivel=127
lokey=b3
loop_end=190122
loop_mode=loop_continuous
loop_start=61055
loop_xfade=15639
lovel=1
pitch_keycenter=c4
sample=4Trumpets_trill_whole_PP_C4.opus
</region>

<region>
hikey=a#5
hivel=127
lokey=a5
loop_end=194400
loop_mode=loop_continuous
loop_start=62429
loop_xfade=15991
lovel=1
pitch_keycenter=a#5
sample=4Trumpets_trill_whole_PP_A#5.opus
</region>

<region>
hikey=a#4
hivel=127
lokey=a4
loop_end=185485
loop_mode=loop_continuous
loop_start=59566
loop_xfade=15257
lovel=1
pitch_keycenter=a#4
sample=4Trumpets_trill_whole_PP_A#4.opus
</region>

<region>
hikey=a#3
hivel=127
lokey=a3
loop_end=192772
loop_mode=loop_continuous
loop_start=61906
loop_xfade=15857
lovel=1
pitch_keycenter=a#3
sample=4Trumpets_trill_whole_PP_A#3.opus
</region>
</group>

<group>
group_label=MF
xf_cccurve=gain
xfin_hicc1=85
xfin_locc1=42
xfout_hicc1=127
xfout_locc1=85

<region>
hikey=g#5
hivel=127
lokey=g5
loop_end=184557
loop_mode=loop_continuous
loop_start=59268
loop_xfade=15181
lovel=1
pitch_keycenter=g#5
sample=4Trumpets_trill_whole_MF_G#5.opus
</region>

<region>
hikey=g#4
hivel=127
lokey=g4
loop_end=191213
loop_mode=loop_continuous
loop_start=61405
loop_xfade=15729
lovel=1
pitch_keycenter=g#4
sample=4Trumpets_trill_whole_MF_G#4.opus
</region>

<region>
hikey=g#3
hivel=127
lokey=g3
loop_end=181384
loop_mode=loop_continuous
loop_start=58249
loop_xfade=14920
lovel=1
pitch_keycenter=g#3
sample=4Trumpets_trill_whole_MF_G#3.opus
</region>

<region>
hikey=f#5
hivel=127
lokey=f5
loop_end=195641
loop_mode=loop_continuous
loop_start=62827
loop_xfade=16093
lovel=1
pitch_keycenter=f#5
sample=4Trumpets_trill_whole_MF_F#5.opus
</region>

<region>
hikey=f#4
hivel=127
lokey=f4
loop_end=190933
loop_mode=loop_continuous
loop_start=61315
loop_xfade=15706
lovel=1
pitch_keycenter=f#4
sample=4Trumpets_trill_whole_MF_F#4.opus
</region>

<region>
hivel=127
key=f#3
loop_end=188982
loop_mode=loop_continuous
loop_start=60689
loop_xfade=15545
lovel=1
sample=4Trumpets_trill_whole_MF_F#3.opus
</region>

<region>
hikey=e5
hivel=127
lokey=d#5
loop_end=190487
loop_mode=loop_continuous
loop_start=61172
loop_xfade=15669
lovel=1
pitch_keycenter=e5
sample=4Trumpets_trill_whole_MF_E5.opus
</region>

<region>
hikey=e4
hivel=127
lokey=d#4
loop_end=190425
loop_mode=loop_continuous
loop_start=61152
loop_xfade=15664
lovel=1
pitch_keycenter=e4
sample=4Trumpets_trill_whole_MF_E4.opus
</region>

<region>
hikey=d5
hivel=127
lokey=c#5
loop_end=193573
loop_mode=loop_continuous
loop_start=62163
loop_xfade=15923
lovel=1
pitch_keycenter=d5
sample=4Trumpets_trill_whole_MF_D5.opus
</region>

<region>
hikey=d4
hivel=127
lokey=c#4
loop_end=186659
loop_mode=loop_continuous
loop_start=59943
loop_xfade=15354
lovel=1
pitch_keycenter=d4
sample=4Trumpets_trill_whole_MF_D4.opus
</region>

<region>
hikey=c6
hivel=127
lokey=b5
loop_end=190663
loop_mode=loop_continuous
loop_start=61229
loop_xfade=15683
lovel=1
pitch_keycenter=C6
sample=4Trumpets_trill_whole_MF_C6.opus
</region>

<region>
hikey=c5
hivel=127
lokey=b4
loop_end=195647
loop_mode=loop_continuous
loop_start=62829
loop_xfade=16093
lovel=1
pitch_keycenter=c5
sample=4Trumpets_trill_whole_MF_C5.opus
</region>

<region>
hikey=c4
hivel=127
lokey=b3
loop_end=185317
loop_mode=loop_continuous
loop_start=59512
loop_xfade=15244
lovel=1
pitch_keycenter=c4
sample=4Trumpets_trill_whole_MF_C4.opus
</region>

<region>
hikey=a#5
hivel=127
lokey=a5
loop_end=188447
loop_mode=loop_continuous
loop_start=60517
loop_xfade=15501
lovel=1
pitch_keycenter=a#5
sample=4Trumpets_trill_whole_MF_A#5.opus
</region>

<region>
hikey=a#4
hivel=127
lokey=a4
loop_end=189810
loop_mode=loop_continuous
loop_start=60955
loop_xfade=15613
lovel=1
pitch_keycenter=a#4
sample=4Trumpets_trill_whole_MF_A#4.opus
</region>

<region>
hikey=a#3
hivel=127
lokey=a3
loop_end=187068
loop_mode=loop_continuous
loop_start=60074
loop_xfade=15388
lovel=1
pitch_keycenter=a#3
sample=4Trumpets_trill_whole_MF_A#3.opus
</region>
</group>

<group>
group_label=FF
xf_cccurve=gain
xfin_hicc1=127
xfin_locc1=85
xfout_hicc1=127
xfout_locc1=127

<region>
hikey=g#5
hivel=127
lokey=g5
loop_end=188962
loop_mode=loop_continuous
loop_start=60682
loop_xfade=15544
lovel=1
pitch_keycenter=g#5
sample=4Trumpets_trill_whole_FF_G#5.opus
</region>

<region>
hikey=g#4
hivel=127
lokey=g4
loop_end=188518
loop_mode=loop_continuous
loop_start=60540
loop_xfade=15507
lovel=1
pitch_keycenter=g#4
sample=4Trumpets_trill_whole_FF_G#4.opus
</region>

<region>
hikey=g#3
hivel=127
lokey=g3
loop_end=184039
loop_mode=loop_continuous
loop_start=59102
loop_xfade=15138
lovel=1
pitch_keycenter=g#3
sample=4Trumpets_trill_whole_FF_G#3.opus
</region>

<region>
hikey=f#5
hivel=127
lokey=f5
loop_end=181596
loop_mode=loop_continuous
loop_start=58317
loop_xfade=14938
lovel=1
pitch_keycenter=f#5
sample=4Trumpets_trill_whole_FF_F#5.opus
</region>

<region>
hikey=f#4
hivel=127
lokey=f4
loop_end=182962
loop_mode=loop_continuous
loop_start=58756
loop_xfade=15050
lovel=1
pitch_keycenter=f#4
sample=4Trumpets_trill_whole_FF_F#4.opus
</region>

<region>
hivel=127
key=f#3
loop_end=175152
loop_mode=loop_continuous
loop_start=56247
loop_xfade=14408
lovel=1
sample=4Trumpets_trill_whole_FF_F#3.opus
</region>

<region>
hikey=e5
hivel=127
lokey=d#5
loop_end=187570
loop_mode=loop_continuous
loop_start=60236
loop_xfade=15429
lovel=1
pitch_keycenter=e5
sample=4Trumpets_trill_whole_FF_E5.opus
</region>

<region>
hikey=e4
hivel=127
lokey=d#4
loop_end=182998
loop_mode=loop_continuous
loop_start=58767
loop_xfade=15053
lovel=1
pitch_keycenter=e4
sample=4Trumpets_trill_whole_FF_E4.opus
</region>

<region>
hikey=d5
hivel=127
lokey=c#5
loop_end=188140
loop_mode=loop_continuous
loop_start=60418
loop_xfade=15476
lovel=1
pitch_keycenter=d5
sample=4Trumpets_trill_whole_FF_D5.opus
</region>

<region>
hikey=d4
hivel=127
lokey=c#4
loop_end=186616
loop_mode=loop_continuous
loop_start=59929
loop_xfade=15351
lovel=1
pitch_keycenter=d4
sample=4Trumpets_trill_whole_FF_D4.opus
</region>

<region>
hikey=c6
hivel=127
lokey=b5
loop_end=184202
loop_mode=loop_continuous
loop_start=59154
loop_xfade=15152
lovel=1
pitch_keycenter=C6
sample=4Trumpets_trill_whole_FF_C6.opus
</region>

<region>
hikey=c5
hivel=127
lokey=b4
loop_end=187215
loop_mode=loop_continuous
loop_start=60121
loop_xfade=15400
lovel=1
pitch_keycenter=c5
sample=4Trumpets_trill_whole_FF_C5.opus
</region>

<region>
hikey=c4
hivel=127
lokey=b3
loop_end=184939
loop_mode=loop_continuous
loop_start=59391
loop_xfade=15213
lovel=1
pitch_keycenter=c4
sample=4Trumpets_trill_whole_FF_C4.opus
</region>

<region>
hikey=a#5
hivel=127
lokey=a5
loop_end=188992
loop_mode=loop_continuous
loop_start=60692
loop_xfade=15546
lovel=1
pitch_keycenter=a#5
sample=4Trumpets_trill_whole_FF_A#5.opus
</region>

<region>
hikey=a#4
hivel=127
lokey=a4
loop_end=188593
loop_mode=loop_continuous
loop_start=60564
loop_xfade=15513
lovel=1
pitch_keycenter=a#4
sample=4Trumpets_trill_whole_FF_A#4.opus
</region>

<region>
hikey=a#3
hivel=127
lokey=a3
loop_end=182956
loop_mode=loop_continuous
loop_start=58754
loop_xfade=15049
lovel=1
pitch_keycenter=a#3
sample=4Trumpets_trill_whole_FF_A#3.opus
</region>
</group>